<?xml version="1.0" encoding="UTF-8"?>
<svg xmlns="http://www.w3.org/2000/svg" viewBox="0 0 60 60" width="60" height="60" role="img" aria-labelledby="title desc">
  <title id="title">Herb icon</title>
  <desc id="desc">Vector tracing of the Lichess nature herb flair icon.</desc>
  <path fill="#5d9821" d="M 56 1 C 55.64 1, 54.84 1.88, 54 2 C 53.16 2.12, 49.72 1.88, 49 2 C 48.28 2.12, 48.48 2.88, 48 3 C 47.52 3.12, 45.84 2.76, 45 3 C 44.16 3.24, 42.2 3.92, 41 5 C 39.8 6.08, 35.72 10.92, 35 12 C 34.28 13.08, 35.12 13.64, 35 14 C 34.88 14.36, 34.12 14.16, 34 15 C 33.88 15.84, 34.48 19.8, 34 21 C 33.52 22.2, 30.6 24.64, 30 25 C 29.4 25.36, 29 24.36, 29 24 C 29 23.64, 29.88 23.44, 30 22 C 30.12 20.56, 30.12 13.32, 30 12 C 29.88 10.68, 29.24 11.6, 29 11 C 28.76 10.4, 28.48 7.84, 28 7 C 27.52 6.16, 25.84 3.52, 25 4 C 24.16 4.48, 21.6 9.2, 21 11 C 20.4 12.8, 20 17.92, 20 19 C 20 20.08, 20.76 19.4, 21 20 C 21.24 20.6, 21.52 23.16, 22 24 C 22.48 24.84, 24.64 25.92, 25 27 C 25.36 28.08, 25.24 31.92, 25 33 C 24.76 34.08, 23.24 35.4, 23 36 C 22.76 36.6, 23.24 37.52, 23 38 C 22.76 38.48, 21.36 39.88, 21 40 C 20.64 40.12, 20.12 40.44, 20 39 C 19.88 37.56, 20.12 29.44, 20 28 C 19.88 26.56, 19.12 27.48, 19 27 C 18.88 26.52, 19.36 25.08, 19 24 C 18.64 22.92, 17.08 19.32, 16 18 C 14.92 16.68, 11.56 13.84, 10 13 C 8.44 12.16, 3.72 9.32, 3 11 C 2.28 12.68, 3.52 24.24, 4 27 C 4.48 29.76, 6.16 32.68, 7 34 C 7.84 35.32, 9.8 37.4, 11 38 C 12.2 38.6, 15.92 38.4, 17 39 C 18.08 39.6, 19.76 42.16, 20 43 C 20.24 43.84, 19.6 45.16, 19 46 C 18.4 46.84, 15.6 49.52, 15 50 C 14.4 50.48, 14.36 49.76, 14 50 C 13.64 50.24, 12.72 51.76, 12 52 C 11.28 52.24, 8.6 51.88, 8 52 C 7.4 52.12, 7.12 52.64, 7 53 C 6.88 53.36, 6.76 54.52, 7 55 C 7.24 55.48, 8.64 56.76, 9 57 C 9.36 57.24, 9.52 57.36, 10 57 C 10.48 56.64, 12.28 54.48, 13 54 C 13.72 53.52, 14.8 54.08, 16 53 C 17.2 51.92, 21.68 45.96, 23 45 C 24.32 44.04, 26.28 44.76, 27 45 C 27.72 45.24, 28.76 46.64, 29 47 C 29.24 47.36, 28.4 47.4, 29 48 C 29.6 48.6, 32.08 51.52, 34 52 C 35.92 52.48, 43.56 52.12, 45 52 C 46.44 51.88, 45.28 51.24, 46 51 C 46.72 50.76, 49.92 50.36, 51 50 C 52.08 49.64, 54.28 48.48, 55 48 C 55.72 47.52, 57 46.48, 57 46 C 57 45.52, 56.44 44.84, 55 44 C 53.56 43.16, 46.56 39.6, 45 39 C 43.44 38.4, 42.48 39.12, 42 39 C 41.52 38.88, 42.08 38, 41 38 C 39.92 38, 34.56 38.4, 33 39 C 31.44 39.6, 28.96 42.52, 28 43 C 27.04 43.48, 25.48 43.12, 25 43 C 24.52 42.88, 24 42.6, 24 42 C 24 41.4, 24.52 39.08, 25 38 C 25.48 36.92, 27.04 33.72, 28 33 C 28.96 32.28, 32.04 31.88, 33 32 C 33.96 32.12, 35.16 33.76, 36 34 C 36.84 34.24, 39.4 33.88, 40 34 C 40.6 34.12, 40.76 35, 41 35 C 41.24 35, 41.28 34.12, 42 34 C 42.72 33.88, 45.56 34.48, 47 34 C 48.44 33.52, 52.8 30.84, 54 30 C 55.2 29.16, 57.48 27.72, 57 27 C 56.52 26.28, 51.8 24.36, 50 24 C 48.2 23.64, 43.08 23.88, 42 24 C 40.92 24.12, 41.6 24.76, 41 25 C 40.4 25.24, 37.96 25.28, 37 26 C 36.04 26.72, 33.84 30.4, 33 31 C 32.16 31.6, 30.48 31.12, 30 31 C 29.52 30.88, 28.4 31.08, 29 30 C 29.6 28.92, 33.68 22.96, 35 22 C 36.32 21.04, 39.28 22.12, 40 22 C 40.72 21.88, 40.52 21.12, 41 21 C 41.48 20.88, 43.4 21.12, 44 21 C 44.6 20.88, 45.04 20.84, 46 20 C 46.96 19.16, 50.8 15.68, 52 14 C 53.2 12.32, 55.52 7.32, 56 6 C 56.48 4.68, 55.88 3.48, 56 3 C 56.12 2.52, 57 2.24, 57 2 C 57 1.76, 56.36 1, 56 1 Z"/>
</svg>
